# xmcd CD database file
#
# Track frame offsets:
#	150
#	17463
#	41700
#	66019
#	79619
#	93150
#	109275
#	133425
#	169725
#	188250
#	204063
#	220915
#	241650
#	260625
#
# Disc length: 4037 seconds
#
# Revision: 0
# Processed by: cddbd v1.5.1PL2 Copyright (c) Steve Scherf et al.
# Submitted via: Feurio! 1.68 - http://www.feurio.com
#
DISCID=b30fc30e
DTITLE=Oreo Blue - Live By Demand CD 1
DYEAR=1900
DGENRE=Blues/Rock
TTITLE0=Shake It Loose
TTITLE1=Speak To The Devil
TTITLE2=Long Gone
TTITLE3=Big Mistake
TTITLE4=Hot Saturday Night
TTITLE5=Reposses My Heart
TTITLE6=Down That Road
TTITLE7=Minor Blues For A Minor Person
TTITLE8=Nobody Like My Baby
TTITLE9=What You Think About Me
TTITLE10=Rock'n Roll All Night
TTITLE11=Milagro
TTITLE12=Year Of Pain
TTITLE13=Too Much Conversation
EXTD=
EXTT0=
EXTT1=
EXTT2=
EXTT3=
EXTT4=
EXTT5=
EXTT6=
EXTT7=
EXTT8=
EXTT9=
EXTT10=
EXTT11=
EXTT12=
EXTT13=
PLAYORDER=
